<mxfile host="app.diagrams.net" modified="2023-02-28T06:09:14.992Z" agent="5.0 (Windows NT 10.0; Win64; x64) AppleWebKit/537.36 (KHTML, like Gecko) Chrome/110.0.0.0 Safari/537.36 Edg/110.0.1587.57" etag="GKLGjWg37ChFCSbbQLmr" version="20.8.23" type="github">
  <diagram id="ADPTiK9DEXp0EauESeuz" name="第 1 页">
    <mxGraphModel dx="1004" dy="606" grid="1" gridSize="10" guides="1" tooltips="1" connect="1" arrows="1" fold="1" page="1" pageScale="1" pageWidth="827" pageHeight="1169" math="1" shadow="0">
      <root>
        <mxCell id="0" />
        <mxCell id="1" parent="0" />
        <mxCell id="_GoJkJV7PqPPJ-_aWAn1-5" value="" style="rounded=0;whiteSpace=wrap;html=1;strokeColor=none;fillColor=#CCCCCC;gradientColor=none;container=0;" parent="1" vertex="1">
          <mxGeometry x="280" y="240" width="280" height="80" as="geometry" />
        </mxCell>
        <mxCell id="_GoJkJV7PqPPJ-_aWAn1-2" value="" style="rounded=0;whiteSpace=wrap;html=1;strokeColor=none;fillColor=#4D4D4D;container=0;" parent="1" vertex="1">
          <mxGeometry x="360" y="240" width="120" height="80" as="geometry" />
        </mxCell>
        <mxCell id="_GoJkJV7PqPPJ-_aWAn1-6" value="&lt;font style=&quot;font-size: 40px;&quot; face=&quot;Times New Roman&quot;&gt;CP&lt;/font&gt;" style="text;html=1;align=center;verticalAlign=middle;resizable=0;points=[];autosize=1;strokeColor=none;fillColor=none;container=0;" parent="1" vertex="1">
          <mxGeometry x="280" y="250" width="70" height="60" as="geometry" />
        </mxCell>
        <mxCell id="_GoJkJV7PqPPJ-_aWAn1-8" value="" style="rounded=0;whiteSpace=wrap;html=1;strokeColor=default;fontFamily=Times New Roman;fontSize=24;fillColor=none;gradientColor=none;strokeWidth=2;" parent="1" vertex="1">
          <mxGeometry x="280" y="240" width="280" height="80" as="geometry" />
        </mxCell>
        <mxCell id="_GoJkJV7PqPPJ-_aWAn1-28" value="" style="endArrow=none;html=1;rounded=0;fontFamily=Times New Roman;fontSize=40;exitX=0;exitY=0;exitDx=0;exitDy=0;" parent="1" source="_GoJkJV7PqPPJ-_aWAn1-2" edge="1">
          <mxGeometry width="50" height="50" relative="1" as="geometry">
            <mxPoint x="640" y="340" as="sourcePoint" />
            <mxPoint x="360" y="200" as="targetPoint" />
            <Array as="points">
              <mxPoint x="360" y="220" />
            </Array>
          </mxGeometry>
        </mxCell>
        <mxCell id="_GoJkJV7PqPPJ-_aWAn1-30" value="&lt;font style=&quot;font-size: 30px;&quot;&gt;$$T_\text{cp}=gT_\text{sym}$$&lt;/font&gt;" style="text;html=1;align=center;verticalAlign=middle;resizable=0;points=[];autosize=1;strokeColor=none;fillColor=none;fontSize=40;fontFamily=Times New Roman;" parent="1" vertex="1">
          <mxGeometry x="260" y="150" width="420" height="60" as="geometry" />
        </mxCell>
        <mxCell id="_GoJkJV7PqPPJ-_aWAn1-31" value="" style="endArrow=classic;startArrow=classic;html=1;rounded=0;fontFamily=Times New Roman;fontSize=40;" parent="1" edge="1">
          <mxGeometry width="50" height="50" relative="1" as="geometry">
            <mxPoint x="360" y="220" as="sourcePoint" />
            <mxPoint x="280" y="220" as="targetPoint" />
          </mxGeometry>
        </mxCell>
        <mxCell id="_GoJkJV7PqPPJ-_aWAn1-32" value="" style="endArrow=none;html=1;rounded=0;fontFamily=Times New Roman;fontSize=40;exitX=0;exitY=1;exitDx=0;exitDy=0;" parent="1" source="_GoJkJV7PqPPJ-_aWAn1-2" edge="1">
          <mxGeometry width="50" height="50" relative="1" as="geometry">
            <mxPoint x="450" y="350" as="sourcePoint" />
            <mxPoint x="360" y="360" as="targetPoint" />
          </mxGeometry>
        </mxCell>
        <mxCell id="_GoJkJV7PqPPJ-_aWAn1-34" value="" style="endArrow=none;html=1;rounded=0;fontFamily=Times New Roman;fontSize=40;entryX=0;entryY=0;entryDx=0;entryDy=0;" parent="1" target="_GoJkJV7PqPPJ-_aWAn1-5" edge="1">
          <mxGeometry width="50" height="50" relative="1" as="geometry">
            <mxPoint x="280" y="200" as="sourcePoint" />
            <mxPoint x="450" y="270" as="targetPoint" />
          </mxGeometry>
        </mxCell>
        <mxCell id="_GoJkJV7PqPPJ-_aWAn1-35" value="" style="endArrow=none;html=1;rounded=0;fontFamily=Times New Roman;fontSize=40;exitX=1;exitY=1;exitDx=0;exitDy=0;entryX=0.856;entryY=1.032;entryDx=0;entryDy=0;entryPerimeter=0;" parent="1" source="_GoJkJV7PqPPJ-_aWAn1-8" edge="1" target="_GoJkJV7PqPPJ-_aWAn1-40">
          <mxGeometry width="50" height="50" relative="1" as="geometry">
            <mxPoint x="370" y="330" as="sourcePoint" />
            <mxPoint x="560" y="440" as="targetPoint" />
          </mxGeometry>
        </mxCell>
        <mxCell id="_GoJkJV7PqPPJ-_aWAn1-36" value="" style="endArrow=classic;startArrow=classic;html=1;rounded=0;fontFamily=Times New Roman;fontSize=40;" parent="1" edge="1">
          <mxGeometry width="50" height="50" relative="1" as="geometry">
            <mxPoint x="560" y="340" as="sourcePoint" />
            <mxPoint x="360" y="340" as="targetPoint" />
          </mxGeometry>
        </mxCell>
        <mxCell id="_GoJkJV7PqPPJ-_aWAn1-37" value="&lt;font style=&quot;font-size: 30px;&quot;&gt;$$T_\text{sym}$$&lt;/font&gt;" style="text;html=1;align=center;verticalAlign=middle;resizable=0;points=[];autosize=1;strokeColor=none;fillColor=none;fontSize=40;fontFamily=Times New Roman;" parent="1" vertex="1">
          <mxGeometry x="335" y="330" width="250" height="60" as="geometry" />
        </mxCell>
        <mxCell id="_GoJkJV7PqPPJ-_aWAn1-38" value="" style="endArrow=none;html=1;rounded=0;fontFamily=Times New Roman;fontSize=40;exitX=0;exitY=1;exitDx=0;exitDy=0;" parent="1" source="_GoJkJV7PqPPJ-_aWAn1-8" edge="1">
          <mxGeometry width="50" height="50" relative="1" as="geometry">
            <mxPoint x="569.9999999999998" y="330" as="sourcePoint" />
            <mxPoint x="280" y="560" as="targetPoint" />
          </mxGeometry>
        </mxCell>
        <mxCell id="_GoJkJV7PqPPJ-_aWAn1-39" value="" style="endArrow=classic;startArrow=classic;html=1;rounded=0;fontFamily=Times New Roman;fontSize=40;" parent="1" edge="1">
          <mxGeometry width="50" height="50" relative="1" as="geometry">
            <mxPoint x="560" y="440" as="sourcePoint" />
            <mxPoint x="280" y="440" as="targetPoint" />
          </mxGeometry>
        </mxCell>
        <mxCell id="_GoJkJV7PqPPJ-_aWAn1-40" value="&lt;font style=&quot;font-size: 30px;&quot;&gt;$$T_s$$&lt;/font&gt;" style="text;html=1;align=center;verticalAlign=middle;resizable=0;points=[];autosize=1;strokeColor=none;fillColor=none;fontSize=40;fontFamily=Times New Roman;" parent="1" vertex="1">
          <mxGeometry x="448" y="430" width="130" height="60" as="geometry" />
        </mxCell>
        <mxCell id="_GoJkJV7PqPPJ-_aWAn1-41" value="" style="rounded=0;whiteSpace=wrap;html=1;strokeColor=none;fillColor=#FFE6CC;gradientColor=none;container=0;" parent="1" vertex="1">
          <mxGeometry x="560" y="240" width="280" height="80" as="geometry" />
        </mxCell>
        <mxCell id="_GoJkJV7PqPPJ-_aWAn1-42" value="" style="rounded=0;whiteSpace=wrap;html=1;strokeColor=none;fillColor=#FFB366;container=0;" parent="1" vertex="1">
          <mxGeometry x="640" y="240" width="120" height="80" as="geometry" />
        </mxCell>
        <mxCell id="_GoJkJV7PqPPJ-_aWAn1-43" value="&lt;font style=&quot;font-size: 40px;&quot; face=&quot;Times New Roman&quot;&gt;CP&lt;/font&gt;" style="text;html=1;align=center;verticalAlign=middle;resizable=0;points=[];autosize=1;strokeColor=none;fillColor=none;container=0;" parent="1" vertex="1">
          <mxGeometry x="560" y="250" width="70" height="60" as="geometry" />
        </mxCell>
        <mxCell id="_GoJkJV7PqPPJ-_aWAn1-44" value="" style="rounded=0;whiteSpace=wrap;html=1;strokeColor=default;fontFamily=Times New Roman;fontSize=24;fillColor=none;gradientColor=none;strokeWidth=2;" parent="1" vertex="1">
          <mxGeometry x="560" y="240" width="280" height="80" as="geometry" />
        </mxCell>
        <mxCell id="_GoJkJV7PqPPJ-_aWAn1-55" value="" style="rounded=0;whiteSpace=wrap;html=1;strokeColor=none;fillColor=#FFFFCC;gradientColor=none;container=0;" parent="1" vertex="1">
          <mxGeometry x="961" y="240" width="280" height="80" as="geometry" />
        </mxCell>
        <mxCell id="_GoJkJV7PqPPJ-_aWAn1-56" value="" style="rounded=0;whiteSpace=wrap;html=1;strokeColor=none;fillColor=#666600;container=0;" parent="1" vertex="1">
          <mxGeometry x="1041" y="240" width="120" height="80" as="geometry" />
        </mxCell>
        <mxCell id="_GoJkJV7PqPPJ-_aWAn1-57" value="&lt;font style=&quot;font-size: 40px;&quot; face=&quot;Times New Roman&quot;&gt;CP&lt;/font&gt;" style="text;html=1;align=center;verticalAlign=middle;resizable=0;points=[];autosize=1;strokeColor=none;fillColor=none;container=0;" parent="1" vertex="1">
          <mxGeometry x="961" y="250" width="70" height="60" as="geometry" />
        </mxCell>
        <mxCell id="_GoJkJV7PqPPJ-_aWAn1-58" value="" style="rounded=0;whiteSpace=wrap;html=1;strokeColor=default;fontFamily=Times New Roman;fontSize=24;fillColor=none;gradientColor=none;strokeWidth=2;" parent="1" vertex="1">
          <mxGeometry x="961" y="240" width="280" height="80" as="geometry" />
        </mxCell>
        <mxCell id="_GoJkJV7PqPPJ-_aWAn1-59" value="..." style="text;html=1;align=center;verticalAlign=middle;resizable=0;points=[];autosize=1;strokeColor=none;fillColor=none;fontSize=40;fontFamily=Times New Roman;" parent="1" vertex="1">
          <mxGeometry x="881" y="240" width="50" height="60" as="geometry" />
        </mxCell>
        <mxCell id="_GoJkJV7PqPPJ-_aWAn1-60" value="" style="endArrow=none;html=1;rounded=0;fontFamily=Times New Roman;fontSize=40;exitX=1;exitY=1;exitDx=0;exitDy=0;" parent="1" source="_GoJkJV7PqPPJ-_aWAn1-58" edge="1">
          <mxGeometry width="50" height="50" relative="1" as="geometry">
            <mxPoint x="290" y="330" as="sourcePoint" />
            <mxPoint x="1241" y="560" as="targetPoint" />
          </mxGeometry>
        </mxCell>
        <mxCell id="_GoJkJV7PqPPJ-_aWAn1-61" value="" style="endArrow=classic;startArrow=classic;html=1;rounded=0;fontFamily=Times New Roman;fontSize=40;" parent="1" edge="1">
          <mxGeometry width="50" height="50" relative="1" as="geometry">
            <mxPoint x="1240" y="540" as="sourcePoint" />
            <mxPoint x="280" y="540" as="targetPoint" />
          </mxGeometry>
        </mxCell>
        <mxCell id="_GoJkJV7PqPPJ-_aWAn1-62" value="&lt;font style=&quot;font-size: 30px;&quot;&gt;$$T=N_sT_s$$&lt;/font&gt;" style="text;html=1;align=center;verticalAlign=middle;resizable=0;points=[];autosize=1;strokeColor=none;fillColor=none;fontSize=40;fontFamily=Times New Roman;" parent="1" vertex="1">
          <mxGeometry x="961" y="455" width="210" height="60" as="geometry" />
        </mxCell>
        <mxCell id="_IRF47p1kUo6j5dpkaL6-1" value="&lt;font style=&quot;font-size: 30px;&quot;&gt;循环前缀时间&lt;/font&gt;" style="text;html=1;align=center;verticalAlign=middle;resizable=0;points=[];autosize=1;strokeColor=none;fillColor=none;fontFamily=宋体;fontSize=30;" vertex="1" parent="1">
          <mxGeometry x="200" y="155" width="200" height="50" as="geometry" />
        </mxCell>
        <mxCell id="_IRF47p1kUo6j5dpkaL6-2" value="&lt;font style=&quot;font-size: 30px;&quot;&gt;符号持续时间&lt;/font&gt;" style="text;html=1;align=center;verticalAlign=middle;resizable=0;points=[];autosize=1;strokeColor=none;fillColor=none;fontFamily=宋体;fontSize=30;" vertex="1" parent="1">
          <mxGeometry x="300" y="370" width="200" height="50" as="geometry" />
        </mxCell>
        <mxCell id="_IRF47p1kUo6j5dpkaL6-3" value="&lt;font style=&quot;font-size: 30px;&quot;&gt;数据块持续时间&lt;/font&gt;" style="text;html=1;align=center;verticalAlign=middle;resizable=0;points=[];autosize=1;strokeColor=none;fillColor=none;fontFamily=宋体;fontSize=30;" vertex="1" parent="1">
          <mxGeometry x="270" y="435" width="230" height="50" as="geometry" />
        </mxCell>
        <mxCell id="_IRF47p1kUo6j5dpkaL6-4" value="&lt;font style=&quot;font-size: 30px;&quot;&gt;下行链路时间&lt;/font&gt;" style="text;html=1;align=center;verticalAlign=middle;resizable=0;points=[];autosize=1;strokeColor=none;fillColor=none;fontFamily=宋体;fontSize=30;" vertex="1" parent="1">
          <mxGeometry x="790" y="460" width="200" height="50" as="geometry" />
        </mxCell>
      </root>
    </mxGraphModel>
  </diagram>
</mxfile>
